<svg xmlns="http://www.w3.org/2000/svg" xmlns:xlink="http://www.w3.org/1999/xlink"><symbol id="icon-close" viewBox="0 0 20 20"><path d="M.293 18.291a1 1 0 101.414 1.414L10 11.413l8.292 8.292a1 1 0 101.414-1.414l-8.292-8.292 8.292-8.292A1 1 0 1018.291.293L9.999 8.585 1.707.293A1 1 0 10.293 1.707L8.585 10 .293 18.291z"/></symbol><symbol id="sprite">
    <symbol viewBox="0 0 35 35" id="icon-deadlines">
      <path d="M3.848 11.662 2.054 10.19c-.975-.799-.975-2.1 0-2.9.975-.8 2.56-.8 3.535 0l1.916 1.572C9.503 7.72 11.78 6.93 14.167 6.55V4.51H12.5c-.46 0-.833-.305-.833-.683V2.051C11.667.92 12.788 0 14.167 0h6.666c1.379 0 2.5.92 2.5 2.05v1.778c0 .378-.373.684-.833.684h-1.667V6.55c2.386.379 4.664 1.17 6.662 2.31l1.916-1.57c.974-.8 2.56-.8 3.535 0 .975.799.975 2.1 0 2.9l-1.794 1.471C33.639 14.203 35 17.368 35 20.644 35 28.56 27.15 35 17.5 35S0 28.56 0 20.645c0-3.277 1.361-6.442 3.848-8.983Zm.563-3.405a.969.969 0 0 0-1.179 0c-.324.267-.324.7 0 .967l1.722 1.412c.388-.327.795-.638 1.219-.934L4.41 8.257Zm17.256-6.206c0-.377-.374-.684-.834-.684h-6.666c-.46 0-.834.307-.834.684v1.094h8.334V2.05Zm-5.834 2.46v1.843a21.842 21.842 0 0 1 3.334 0V4.512h-3.334Zm15.935 3.746a.969.969 0 0 0-1.179 0l-1.761 1.445c.423.296.83.607 1.218.934l1.722-1.412c.324-.267.324-.7 0-.967ZM17.5 33.633c8.73 0 15.833-5.827 15.833-12.989 0-3.159-1.398-6.202-3.936-8.57-.7-.653-1.48-1.25-2.32-1.773-2.103-1.313-4.593-2.178-7.2-2.5a19.562 19.562 0 0 0-4.753 0c-2.608.322-5.098 1.187-7.202 2.5-.84.524-1.62 1.12-2.319 1.772-2.538 2.368-3.936 5.412-3.936 8.572 0 7.161 7.103 12.988 15.833 12.988Z"/>
      <path d="M17.5 22.695c-1.379 0-2.5-.92-2.5-2.05 0-.892.697-1.651 1.667-1.934V13.81c0-.378.373-.684.833-.684.46 0 .833.306.833.684v4.902c.97.283 1.667 1.043 1.667 1.934 0 1.13-1.121 2.05-2.5 2.05Zm0-2.734c-.46 0-.833.306-.833.684 0 .377.373.683.833.683.46 0 .833-.306.833-.683 0-.378-.373-.684-.833-.684Z"/>
      <path d="M8.623 13.433a.596.596 0 0 1 .04-.037l.05-.037c1.468-1.192 3.283-2.074 5.252-2.55.441-.108.905.1 1.035.461.13.362-.122.742-.563.85a11.75 11.75 0 0 0-3.98 1.78l.562.46c.325.268.325.7 0 .968a.932.932 0 0 1-.59.2.932.932 0 0 1-.59-.2l-.563-.462C7.77 16.303 6.873 18.074 6.7 19.96H7.5c.46 0 .833.306.833.684 0 .377-.373.683-.833.683h-.801c.174 1.887 1.07 3.657 2.577 5.096l.564-.463a.968.968 0 0 1 1.179 0c.325.267.325.7 0 .967l-.564.462c1.753 1.237 3.912 1.972 6.212 2.115v-.657c0-.378.373-.684.833-.684.46 0 .833.306.833.684v.657c2.3-.143 4.459-.878 6.212-2.115l-.564-.462c-.325-.267-.325-.7 0-.967a.968.968 0 0 1 1.18 0l.563.463c1.508-1.439 2.403-3.21 2.577-5.096H27.5c-.46 0-.833-.306-.833-.683 0-.378.373-.684.833-.684h.801c-.174-1.887-1.07-3.657-2.577-5.095l-.564.462a.932.932 0 0 1-.589.2.932.932 0 0 1-.59-.2c-.325-.267-.325-.7 0-.967l.563-.461a11.745 11.745 0 0 0-3.98-1.78c-.442-.107-.694-.488-.564-.85s.593-.568 1.035-.462c1.97.477 3.783 1.359 5.252 2.55a.786.786 0 0 1 .05.037l.04.037C28.714 15.367 30 17.926 30 20.645c0 2.718-1.286 5.277-3.623 7.211a.58.58 0 0 1-.04.037l-.045.033c-2.358 1.917-5.478 2.972-8.792 2.972s-6.433-1.055-8.792-2.971l-.045-.034c-.014-.011-.027-.024-.04-.036C6.286 25.922 5 23.363 5 20.645c0-2.719 1.286-5.278 3.623-7.212Z"/>
      <path d="M17.5 11.758c-.46 0-.833-.306-.833-.684 0-.377.373-.683.833-.683.46 0 .833.306.833.683 0 .377-.373.684-.833.684Z"/>
    </symbol>
    <symbol viewBox="0 0 35 35" id="icon-suppliers">
      <path d="M31.264 27.893a3.132 3.132 0 0 0 .597-1.842v-4.108a.684.684 0 0 0-.684-.683h-3.055a2.564 2.564 0 0 0-2.561 2.561v2.23c0 .687.222 1.323.596 1.841a4.402 4.402 0 0 0-1.336.445 5.817 5.817 0 0 0-4.294-2.56l-.021-.005a4.02 4.02 0 0 0 1.03-2.69V17.5a.684.684 0 0 0-.684-.684H16.7a3.24 3.24 0 0 0-3.236 3.236v3.03a4.02 4.02 0 0 0 1.03 2.69l-.021.005a5.816 5.816 0 0 0-4.294 2.56c-.42-.22-.87-.369-1.337-.445a3.132 3.132 0 0 0 .597-1.84v-4.109a.684.684 0 0 0-.684-.683H5.7a2.564 2.564 0 0 0-2.56 2.561v2.23c0 .688.221 1.324.596 1.842A4.464 4.464 0 0 0 0 32.291v2.025c0 .378.306.684.684.684h33.632a.684.684 0 0 0 .684-.684v-2.025a4.464 4.464 0 0 0-3.736-4.398ZM4.506 23.821c0-.658.536-1.194 1.194-1.194h2.372v.832c0 .409-.332.74-.74.74H4.506v-.378Zm0 1.746h2.826c.26 0 .51-.048.74-.135v.62c0 .982-.8 1.782-1.783 1.782-.983 0-1.783-.8-1.783-1.783v-.484Zm2.224 3.634-.44.44-.442-.44h.882Zm2.468 2.363v2.069h-7.83V32.29a3.095 3.095 0 0 1 2.588-3.049l1.85 1.85a.684.684 0 0 0 .966 0l1.85-1.85c.327.053.642.158.934.312a5.784 5.784 0 0 0-.358 2.01Zm8.302-5.813a2.672 2.672 0 0 1-2.668-2.668v-.904h4.085c.453 0 .88-.115 1.252-.319v1.223a2.672 2.672 0 0 1-2.669 2.669Zm1.192 1.368L17.5 28.31l-1.192-1.191h2.384Zm-3.86-7.067a1.87 1.87 0 0 1 1.868-1.868h3.469v1.377c0 .69-.562 1.251-1.252 1.251H14.83v-.76Zm9.603 13.58H10.565v-1.366h4.451a.684.684 0 1 0 0-1.368h-4.4a4.455 4.455 0 0 1 3.8-3.738l2.6 2.6a.682.682 0 0 0 .967 0l2.601-2.6a4.451 4.451 0 0 1 3.85 4.404v2.069Zm2.493-9.81c0-.66.536-1.195 1.194-1.195h2.372v.832c0 .409-.332.74-.74.74h-2.826v-.378Zm0 1.745h2.825c.26 0 .51-.048.74-.135v.62c0 .982-.799 1.782-1.782 1.782s-1.783-.8-1.783-1.783v-.484Zm2.224 3.634-.441.44-.44-.44h.88Zm-3.35 4.432v-2.069c0-.706-.127-1.383-.358-2.01.292-.154.606-.26.933-.312l1.85 1.85a.684.684 0 0 0 .967 0l1.85-1.85a3.095 3.095 0 0 1 2.589 3.05v1.34h-7.831ZM20.869 4.466a.684.684 0 0 0-.967 0l-3.354 3.355-1.45-1.45a.684.684 0 1 0-.967.967l1.933 1.933a.684.684 0 0 0 .967 0l3.838-3.838a.684.684 0 0 0 0-.966Z"/>
      <path d="M20.295.593a.684.684 0 0 0-.557 1.248 5.51 5.51 0 0 1 3.264 5.028A5.508 5.508 0 0 1 17.5 12.37a5.508 5.508 0 0 1-5.502-5.501 5.515 5.515 0 0 1 3.24-5.017.683.683 0 1 0-.563-1.246 6.885 6.885 0 0 0-4.044 6.263 6.877 6.877 0 0 0 6.869 6.868 6.876 6.876 0 0 0 6.869-6.868A6.88 6.88 0 0 0 20.295.593Z"/>
      <path d="M17.524 0H17.5a.684.684 0 0 0 0 1.367H17.521A.684.684 0 0 0 17.524 0ZM17.983 31.099a.688.688 0 0 0-.483-.2.689.689 0 0 0-.483.2.689.689 0 0 0-.2.483c0 .18.073.356.2.483.127.128.303.2.483.2a.688.688 0 0 0 .684-.683.689.689 0 0 0-.2-.483Z"/>
    </symbol>
    <symbol viewBox="0 0 35 35" id="icon-confidentiality">
      <path d="M17.5 11.017c-.377 0-.684.358-.684.8 0 .44.307.8.684.8.377 0 .684-.36.684-.8 0-.442-.307-.8-.684-.8Z"/>
      <path d="M32.95 15.814h-2.66C28.886 11.132 26.852 2.922 23.166.598c-1.843-1.16-3.586-.35-4.24 1.297-.28.7-.836 1.068-1.427 1.068-.599 0-1.15-.376-1.426-1.067C15.442.305 13.74-.58 11.962.429 8.218 2.556 6.124 11.096 4.711 15.814H2.05C.918 15.814 0 16.887 0 18.212c0 1.322.92 2.398 2.05 2.398h30.9c1.132 0 2.05-1.073 2.05-2.398 0-1.322-.92-2.398-2.05-2.398ZM7.111 12.616h7.654c.377 0 .683-.358.683-.8 0-.44-.306-.799-.683-.799H7.59c2.06-6.656 3.986-8.59 4.97-9.15 1.073-.608 1.956-.099 2.274.703.502 1.26 1.54 1.992 2.666 1.992 1.13 0 2.166-.735 2.666-1.992.327-.824 1.215-1.28 2.352-.565.989.624 2.908 2.622 4.892 9.012h-7.176c-.377 0-.683.358-.683.8 0 .441.306.8.683.8h7.654c.346 1.165.705 2.367.953 3.197H6.159c.248-.828.606-2.027.953-3.198Zm25.837 6.396H2.051c-.377 0-.684-.36-.684-.8 0-.441.306-.8.684-.8h30.898c.377 0 .684.36.684.8 0 .441-.306.8-.684.8ZM16.133 23.808H5.195c-.377 0-.683.358-.683.8v3.197c0 3.967 2.76 7.195 6.152 7.195 2.57 0 4.846-1.849 5.75-4.634a2.28 2.28 0 0 1 2.171 0C19.49 33.15 21.765 35 24.335 35c3.393 0 6.153-3.228 6.153-7.195v-3.198c0-.441-.306-.8-.683-.8H18.867c-.377 0-.683.359-.683.8v.8h-1.368v-.8c0-.441-.306-.799-.683-.799Zm-5.469 9.593c-2.638 0-4.785-2.51-4.785-5.596v-2.398h9.57v2.398c0 3.094-2.135 5.596-4.785 5.596Zm8.887-7.994h9.57v2.398c0 3.086-2.146 5.596-4.785 5.596-2.657 0-4.785-2.51-4.785-5.596v-2.398Zm-1.367 1.599v.8c0 .255.012.51.035.762a3.432 3.432 0 0 0-1.438 0 8.52 8.52 0 0 0 .035-.763v-.8h1.368Z"/>
      <path d="M10.664 30.203c-1.13 0-2.05-1.076-2.05-2.398 0-.442-.307-.8-.684-.8-.378 0-.684.358-.684.8 0 2.204 1.533 3.997 3.418 3.997.378 0 .684-.358.684-.8 0-.44-.306-.799-.684-.799ZM24.336 31.802c1.885 0 3.418-1.793 3.418-3.997 0-.442-.306-.8-.684-.8-.377 0-.683.358-.683.8 0 1.322-.92 2.398-2.051 2.398-.378 0-.684.358-.684.8 0 .441.306.8.684.8Z"/>
    </symbol>
    <symbol viewBox="0 0 35 35" id="icon-personalization">
      <path d="M11.07 8.585a.689.689 0 0 0-.482-.2.689.689 0 0 0-.484.2.69.69 0 0 0-.2.483c0 .18.073.356.2.483.127.128.304.2.484.2s.356-.072.483-.2a.69.69 0 0 0 .2-.483.69.69 0 0 0-.2-.483Z"/>
      <path d="m34.8 2.859-.845-.847.845-.845A.684.684 0 0 0 33.833.2l-.844.845-.833-.834a.683.683 0 0 0-.484-.2L20.102.003H20.1c-.913 0-1.772.356-2.418 1.002L11.908 6.78a.684.684 0 0 0 .967.967l5.774-5.774A2.04 2.04 0 0 1 20.1 1.37h.002l11.286.007.634.634-2.537 2.537a2.805 2.805 0 0 0-3.419.422 2.783 2.783 0 0 0-.82 1.98c0 .748.291 1.452.82 1.98a2.792 2.792 0 0 0 1.98.82c.717 0 1.434-.273 1.98-.82a2.806 2.806 0 0 0 .425-3.415l2.537-2.537.645.646-.007 11.273a2.04 2.04 0 0 1-.601 1.451L16.344 33.033a2.04 2.04 0 0 1-1.452.601 2.04 2.04 0 0 1-1.452-.601L1.97 21.559a2.04 2.04 0 0 1-.602-1.452c0-.548.214-1.064.602-1.452l7.368-7.37a.684.684 0 0 0-.966-.966L1 17.689A3.399 3.399 0 0 0 0 20.106c0 .914.356 1.773 1.002 2.42L12.473 34a3.41 3.41 0 0 0 2.419 1 3.41 3.41 0 0 0 2.419-1l16.68-16.684a3.4 3.4 0 0 0 1.003-2.417L35 3.342a.683.683 0 0 0-.2-.483Zm-5.74 5.106c-.271.27-.631.42-1.014.42s-.742-.15-1.013-.42a1.435 1.435 0 0 1 1.013-2.447c.139 0 .277.02.41.06l-.789.789a.684.684 0 0 0 .967.967l.787-.787a1.434 1.434 0 0 1-.361 1.418Z"/>
      <path d="m29.2 13.764-7.966-7.967a2.71 2.71 0 0 0-3.828 0L4.799 18.406a2.69 2.69 0 0 0-.793 1.914c0 .723.282 1.403.793 1.914l7.967 7.968c.51.51 1.19.793 1.914.793.723 0 1.402-.282 1.913-.793L29.2 17.592a2.69 2.69 0 0 0 .793-1.913 2.69 2.69 0 0 0-.793-1.915Zm-.966 2.862L15.627 29.235a1.33 1.33 0 0 1-.947.392 1.33 1.33 0 0 1-.947-.392l-7.967-7.968a1.33 1.33 0 0 1-.392-.947c0-.358.139-.695.392-.948L18.373 6.764c.261-.262.604-.392.947-.392.343 0 .686.13.947.392l7.966 7.967c.253.253.393.59.393.948 0 .357-.14.694-.393.947Z"/>
      <path d="M22.29 13.677a.684.684 0 0 0-.966-.967l-.394.394c-1.051-.65-2.4-.563-3.252.29a2.48 2.48 0 0 0-.716 1.9 2.876 2.876 0 0 0 .853 1.892c.55.55.611 1.384.137 1.859-.475.474-1.309.413-1.859-.137s-.61-1.384-.136-1.859a.684.684 0 0 0-.967-.967c-.853.853-.94 2.202-.29 3.253l-.468.467a.684.684 0 0 0 .968.967l.467-.467c.46.283.975.427 1.482.427.652 0 1.29-.238 1.77-.717 1.007-1.008.946-2.709-.137-3.792a1.512 1.512 0 0 1-.454-.991 1.13 1.13 0 0 1 .317-.868c.474-.475 1.308-.413 1.858.137s.611 1.384.137 1.858a.684.684 0 0 0 .966.967c.853-.852.94-2.201.29-3.252l.394-.394ZM15.372 25.012 11.86 21.5a.684.684 0 0 0-.967.967l3.51 3.512a.682.682 0 0 0 .968 0 .684.684 0 0 0 0-.967ZM9.988 19.627a.688.688 0 0 0-.483-.2.69.69 0 0 0-.484.2.689.689 0 0 0-.2.484c0 .18.073.356.2.483a.687.687 0 0 0 1.168-.483.688.688 0 0 0-.201-.484Z"/>
      </symbol>
      <symbol viewBox="0 0 30 30" id="icon-ok">
        <path d="M15.171 12.643c1.157 0 2.057-.965 2.036-2.014.021-1.05-.857-2.036-2.014-2.036-1.115 0-2.036.9-2.036 2.014 0 1.114.9 2.036 2.014 2.036Z" fill="#F8FDFF"/>
        <path d="M15 0C6.729 0 0 6.729 0 15c0 8.293 6.729 15 15 15 8.293 0 15-6.729 15-15 .021-8.271-6.707-15-15-15Zm.214 5.679c2.7 0 4.929 2.228 4.907 4.95 0 2.742-2.25 4.95-4.992 4.907-2.7-.043-4.865-2.25-4.865-4.929a4.934 4.934 0 0 1 4.95-4.928Zm5.507 11.571c0 .043-.021.064-.021.107a1.401 1.401 0 0 1-.643 1.007c-.236.15-.493.3-.75.429a9.662 9.662 0 0 1-2.036.75c-.085.021-.085.021-.021.086l1.178 1.178 1.5 1.5a1.43 1.43 0 0 1-.385 2.314c-.15.086-.322.108-.493.15h-.279c-.021 0-.043 0-.043-.021-.342-.043-.62-.214-.878-.45l-2.593-2.593c-.064-.064-.064-.064-.128 0l-2.615 2.614c-.15.15-.3.258-.493.343-.128.065-.278.086-.407.107h-.278c-.043 0-.065-.021-.107-.021-.579-.107-.965-.429-1.136-.986-.172-.557-.043-1.05.364-1.457l1.072-1.071 1.585-1.586c.064-.064.064-.064-.021-.086-.022 0-.065-.021-.086-.021a9.26 9.26 0 0 1-2.678-1.136c-.493-.321-.729-.793-.665-1.371a1.44 1.44 0 0 1 2.207-1.072c.172.107.322.193.515.279a6.1 6.1 0 0 0 3.128.643 6.069 6.069 0 0 0 1.607-.3c.515-.172.965-.407 1.436-.665a1.445 1.445 0 0 1 2.079.75c.043.129.064.236.085.365v.214Z" fill="#F8FDFF"/>
      </symbol>
      <symbol viewBox="0 0 30 30" id="icon-vk">
        <path d="M21.617 17.454c-1.235-1.181-1.323-1.181-.265-2.545C22.676 13.182 24.44 11 22.852 11h-2.911c-.53 0-.618.364-.794.818-.706 1.728-2.118 4-2.647 3.636-.53-.363-.265-1.727-.265-3.908a.722.722 0 0 0-.177-.728c-.176-.181-.44-.363-.706-.363-.44-.091-.882-.182-1.323-.182-1.676 0-2.823.727-2.206.818 1.147.182 1.059 2.727.794 3.818-.44 1.91-2.206-1.454-3-3.182A.865.865 0 0 0 8.735 11H6.441c-.353 0-.618.091-.618.364 0 .454 2.206 4.909 4.236 7.181 2.029 2.182 4.058 2 5.47 2 .176 0 .353-.09.441-.182a.706.706 0 0 0 .177-.454c0-1.455.529-2.182 1.5-1.182 1.058 1.09 1.323 1.818 2.647 1.818h2.382c.617 0 .794-.182.794-.454.088-.637-.97-1.819-1.853-2.637ZM15.352.001C23.558.183 30.087 7 30 15.273c-.088 8.272-6.882 14.817-15.088 14.726C6.617 29.91 0 23.272 0 15 .088 6.637 6.97-.09 15.352 0Z" fill="#F8FDFF"/>
      </symbol>
      <symbol viewBox="0 0 30 30" id="icon-pinterest">
        <path d="M15 0c8.285 0 15 6.716 15 15 0 8.285-6.715 15-15 15S0 23.285 0 15C0 6.716 6.715 0 15 0Z" fill="#F8FDFF"/>
        <path d="M15 5C9.482 5 5 9.482 5 15s4.482 10 10 10 10-4.482 10-10S20.518 5 15 5Zm0 .87A9.124 9.124 0 0 1 24.13 15 9.124 9.124 0 0 1 15 24.13a9.148 9.148 0 0 1-2.654-.392c.374-.625.857-1.519 1.049-2.257l.583-2.222c.304.581 1.194 1.073 2.141 1.073 2.82 0 4.852-2.593 4.852-5.814 0-3.09-2.52-5.4-5.764-5.4-4.035 0-6.176 2.708-6.176 5.657 0 1.371.73 3.078 1.897 3.622.177.082.272.046.313-.125.03-.13.189-.765.26-1.06a.28.28 0 0 0-.065-.268c-.386-.469-.696-1.33-.696-2.133 0-2.062 1.56-4.058 4.22-4.058 2.296 0 3.905 1.566 3.905 3.804 0 2.528-1.277 4.28-2.938 4.28-.918 0-1.605-.759-1.385-1.69.264-1.11.775-2.31.775-3.112 0-.717-.385-1.316-1.183-1.316-.938 0-1.692.97-1.692 2.27 0 .827.28 1.387.28 1.387s-.926 3.918-1.096 4.647c-.17.729-.124 1.71-.054 2.44A9.124 9.124 0 0 1 5.87 15 9.124 9.124 0 0 1 15 5.87Z" fill="#041827"/>
      </symbol>
  </symbol></svg>